# xmcd CD database file
#
# Track frame offsets:
#	150
#	15900
#	30225
#	61575
#	78825
#	97350
#	118200
#	140100
#	155175
#	167775
#	185250
#	204825
#	216675
#	229725
#	244725
#	267150
#	277875
#	289425
#	307425
#
# Disc length: 4290 seconds
#
# Revision: 0
# Processed by: cddbd v1.4PL0 Copyright (c) Steve Scherf et al.
# Submitted via: Feurio! 1.65 - http://www.feurio.com
#
DISCID=1b10c013
DTITLE=The Nighthawks - Jacks and Kings and Full House
DYEAR=1980
DGENRE=Blues
TTITLE0=For You My Love
TTITLE1=Come Baby
TTITLE2=Got A Mind To Travel
TTITLE3=Love Or Leave Me
TTITLE4=Dust My Broom
TTITLE5=Sugar Mama
TTITLE6=the Sky Is Cryin'
TTITLE7=Pinetop's Boogie Woogie
TTITLE8=Floyd's Guitar Blues
TTITLE9=Walkin' By Myself
TTITLE10=Little Queenie
TTITLE11=Born In Chicago
TTITLE12=Anna Lee
TTITLE13=Two Bugs And A Roach
TTITLE14=Lickin' Gravy
TTITLE15=Sea Cruise
TTITLE16=Nervous Breakdown
TTITLE17=Before You 'cuse Me
TTITLE18=Rockin' The Boogie
EXTD=ARD Line Records LICD 9.00417 1980 Adelphi Records
EXTT0=
EXTT1=
EXTT2=
EXTT3=
EXTT4=
EXTT5=
EXTT6=
EXTT7=
EXTT8=
EXTT9=
EXTT10=
EXTT11=
EXTT12=
EXTT13=
EXTT14=
EXTT15=
EXTT16=
EXTT17=
EXTT18=
PLAYORDER=
